<svg xmlns:mydata="http://www.w3.org/2000/svg" mydata:contrastcolor="11111f" mydata:template="Contrast" mydata:presentation="2.5" mydata:layouttype="undefined" mydata:specialfontid="undefined" mydata:id1="654" mydata:id2="273" mydata:companyname="window of coding" mydata:companytagline="" version="1.1" xmlns="http://www.w3.org/2000/svg" xmlns:xlink="http://www.w3.org/1999/xlink" style="height: 329px;" viewBox="0 0 550 470">
<g fill="#44d62c" fill-rule="none" stroke="none" stroke-width="1" stroke-linecap="butt" stroke-linejoin="miter" stroke-miterlimit="10" stroke-dasharray="" stroke-dashoffset="0" font-family="none" font-weight="none" font-size="none" text-anchor="none" style="mix-blend-mode: normal"><g data-paper-data="{&quot;isGlobalGroup&quot;:true,&quot;bounds&quot;:{&quot;x&quot;:101.55948500628031,&quot;y&quot;:119.46507131530801,&quot;width&quot;:346.8810299874393,&quot;height&quot;:231.0698573693839}}"><g data-paper-data="{&quot;stacked&quot;:true,&quot;isPrimaryText&quot;:true}" fill-rule="nonzero" id="element-id-2431"><path d="M136.5685,280.33253v8.75225h-8.75225v-0.87523h-2.62568c-1.9255,0 -4.6387,-1.00651 -6.12658,-2.18806c-1.66293,1.3566 -3.80723,2.18806 -6.12658,2.18806h-2.62568v0.87523h-8.75225v-8.75225h0.87523v-15.75406h-0.87523v-8.75225h8.75225v8.75225h-0.87523v15.75406h0.87523v0.87523h2.62568c1.44412,0 2.62568,-1.18155 2.62568,-2.62568v-14.00361h-0.87523v-8.75225h8.75225v8.75225h-0.87523v14.00361c0,1.44412 1.18155,2.62568 2.62568,2.62568h2.62568v-0.87523h0.87523v-15.75406h-0.87523v-8.75225h8.75225v8.75225h-0.87523v15.75406zM130.44193,286.45911h3.5009v-3.5009h-3.5009zM104.18516,286.45911h3.5009v-3.5009h-3.5009zM125.19057,285.58389h2.62568v-1.75045h-2.62568c-2.88824,0 -5.25135,-2.36311 -5.25135,-5.25135v-14.00361h-1.75045v14.00361c0,3.85099 3.15081,7.0018 7.0018,7.0018zM110.31174,285.58389h2.62568c1.66293,0 3.15081,-0.5689 4.33237,-1.53164c-0.26257,-0.39385 -0.65642,-1.09403 -0.87523,-1.53164c-0.91899,0.83146 -2.1443,1.31284 -3.45714,1.31284h-2.62568zM131.31715,280.33253h1.75045v-15.75406h-1.75045zM105.06039,280.33253h1.75045v-15.75406h-1.75045zM130.44193,261.9528h3.5009v-3.5009h-3.5009zM117.31354,261.9528h3.5009v-3.5009h-3.5009zM104.18516,261.9528h3.5009v-3.5009h-3.5009z" data-paper-data="{&quot;glyphName&quot;:&quot;W&quot;,&quot;glyphIndex&quot;:0,&quot;firstGlyphOfWord&quot;:true,&quot;word&quot;:1,&quot;line&quot;:1,&quot;firstGlyphOfFirstLine&quot;:true}" id="element-id-757"></path><path d="M150.06156,264.57847v-8.75225h8.75225v8.75225h-0.87523v15.75406h0.87523v8.75225h-8.75225v-8.75225h0.87523v-15.75406zM156.18814,258.4519h-3.5009v3.5009h3.5009zM155.31292,264.57847h-1.75045v15.75406h1.75045zM156.18814,282.95821h-3.5009v3.5009h3.5009z" data-paper-data="{&quot;glyphName&quot;:&quot;I&quot;,&quot;glyphIndex&quot;:1,&quot;word&quot;:1,&quot;line&quot;:1}" id="element-id-2645"></path><path d="M172.30688,264.57847v-8.75225h8.75225v0.87523h10.50271c5.29511,0 9.62748,4.33237 9.62748,9.62748v14.00361h0.87523v8.75225h-8.75225v-8.75225h0.87523v-14.00361c0,-1.44412 -1.18155,-2.62568 -2.62568,-2.62568h-10.50271v0.87523h-0.87523v15.75406h0.87523v8.75225h-8.75225v-8.75225h0.87523v-15.75406zM178.43346,258.4519h-3.5009v3.5009h3.5009zM191.56184,259.32712h-10.50271v1.75045h10.50271c2.88824,0 5.25135,2.36311 5.25135,5.25135v14.00361h1.75045v-14.00361c0,-3.85099 -3.15081,-7.0018 -7.0018,-7.0018zM177.55823,264.57847h-1.75045v15.75406h1.75045zM178.43346,282.95821h-3.5009v3.5009h3.5009zM199.43887,282.95821h-3.5009v3.5009h3.5009z" data-paper-data="{&quot;glyphName&quot;:&quot;N&quot;,&quot;glyphIndex&quot;:2,&quot;word&quot;:1,&quot;line&quot;:1}" id="element-id-2847"></path><path d="M215.5576,264.49095v-8.75225h8.75225v0.87523h5.25135c8.70849,0 15.75406,7.04557 15.75406,15.75406c0,8.70849 -7.04557,15.75406 -15.75406,15.75406h-5.25135v0.87523h-8.75225v-8.75225h0.87523v-15.75406zM221.68418,258.36437h-3.5009v3.5009h3.5009zM229.56121,259.2396h-5.25135v1.75045h5.25135c6.30162,0 11.37793,5.07631 11.37793,11.37793c0,6.30162 -5.07631,11.37793 -11.37793,11.37793h-5.25135v1.75045h5.25135c7.26437,0 13.12838,-5.86401 13.12838,-13.12838c0,-7.26437 -5.86401,-13.12838 -13.12838,-13.12838zM229.56121,263.61573h-5.25135v0.87523h-0.87523v15.75406h0.87523v0.87523h5.25135c4.81374,0 8.75225,-3.93851 8.75225,-8.75225c0,-4.81374 -3.93851,-8.75225 -8.75225,-8.75225zM220.80896,264.49095h-1.75045v15.75406h1.75045zM221.68418,282.87069h-3.5009v3.5009h3.5009z" data-paper-data="{&quot;glyphName&quot;:&quot;D&quot;,&quot;glyphIndex&quot;:3,&quot;word&quot;:1,&quot;line&quot;:1}" id="element-id-59413"></path><path d="M275.43761,255.82622c9.18987,0 16.62928,7.43942 16.62928,16.62928c0,9.18987 -7.43942,16.62928 -16.62928,16.62928c-9.18987,0 -16.62928,-7.43942 -16.62928,-16.62928c0,-9.18987 7.43942,-16.62928 16.62928,-16.62928zM275.43761,258.4519c-7.74575,0 -14.00361,6.25786 -14.00361,14.00361c0,7.74575 6.25786,14.00361 14.00361,14.00361c7.74575,0 14.00361,-6.25786 14.00361,-14.00361c0,-7.74575 -6.25786,-14.00361 -14.00361,-14.00361zM275.43761,260.20235c6.783,0 12.25316,5.47016 12.25316,12.25316c0,6.783 -5.47016,12.25316 -12.25316,12.25316c-6.783,0 -12.25316,-5.47016 -12.25316,-12.25316c0,-6.783 5.47016,-12.25316 12.25316,-12.25316zM275.43761,262.82802c-5.29511,0 -9.62748,4.33237 -9.62748,9.62748c0,5.29511 4.33237,9.62748 9.62748,9.62748c5.29511,0 9.62748,-4.33237 9.62748,-9.62748c0,-5.29511 -4.33237,-9.62748 -9.62748,-9.62748zM271.06149,276.83163v-8.75225h8.75225v8.75225zM277.18806,270.70505h-3.5009v3.5009h3.5009z" data-paper-data="{&quot;glyphName&quot;:&quot;O&quot;,&quot;glyphIndex&quot;:4,&quot;word&quot;:1,&quot;line&quot;:1}" id="element-id-8662"></path><path d="M340.56898,280.33253v8.75225h-8.75225v-0.87523h-2.62568c-1.9255,0 -4.6387,-1.00651 -6.12658,-2.18806c-1.66293,1.3566 -3.80723,2.18806 -6.12658,2.18806h-2.62568v0.87523h-8.75225v-8.75225h0.87523v-15.75406h-0.87523v-8.75225h8.75225v8.75225h-0.87523v15.75406h0.87523v0.87523h2.62568c1.44412,0 2.62568,-1.18155 2.62568,-2.62568v-14.00361h-0.87523v-8.75225h8.75225v8.75225h-0.87523v14.00361c0,1.44412 1.18155,2.62568 2.62568,2.62568h2.62568v-0.87523h0.87523v-15.75406h-0.87523v-8.75225h8.75225v8.75225h-0.87523v15.75406zM334.4424,286.45911h3.5009v-3.5009h-3.5009zM308.18563,286.45911h3.5009v-3.5009h-3.5009zM329.19104,285.58389h2.62568v-1.75045h-2.62568c-2.88824,0 -5.25135,-2.36311 -5.25135,-5.25135v-14.00361h-1.75045v14.00361c0,3.85099 3.15081,7.0018 7.0018,7.0018zM314.31221,285.58389h2.62568c1.66293,0 3.15081,-0.5689 4.33237,-1.53164c-0.26257,-0.39385 -0.65642,-1.09403 -0.87523,-1.53164c-0.91899,0.83146 -2.1443,1.31284 -3.45714,1.31284h-2.62568zM335.31762,280.33253h1.75045v-15.75406h-1.75045zM309.06086,280.33253h1.75045v-15.75406h-1.75045zM334.4424,261.9528h3.5009v-3.5009h-3.5009zM321.31401,261.9528h3.5009v-3.5009h-3.5009zM308.18563,261.9528h3.5009v-3.5009h-3.5009z" data-paper-data="{&quot;glyphName&quot;:&quot;W&quot;,&quot;glyphIndex&quot;:5,&quot;lastGlyphOfWord&quot;:true,&quot;word&quot;:1,&quot;line&quot;:1}" id="element-id-89566"></path><path d="M392.93663,255.82622c9.18987,0 16.62928,7.43942 16.62928,16.62928c0,9.18987 -7.43942,16.62928 -16.62928,16.62928c-9.18987,0 -16.62928,-7.43942 -16.62928,-16.62928c0,-9.18987 7.43942,-16.62928 16.62928,-16.62928zM392.93663,258.4519c-7.74575,0 -14.00361,6.25786 -14.00361,14.00361c0,7.74575 6.25786,14.00361 14.00361,14.00361c7.74575,0 14.00361,-6.25786 14.00361,-14.00361c0,-7.74575 -6.25786,-14.00361 -14.00361,-14.00361zM392.93663,260.20235c6.783,0 12.25316,5.47016 12.25316,12.25316c0,6.783 -5.47016,12.25316 -12.25316,12.25316c-6.783,0 -12.25316,-5.47016 -12.25316,-12.25316c0,-6.783 5.47016,-12.25316 12.25316,-12.25316zM392.93663,262.82802c-5.29511,0 -9.62748,4.33237 -9.62748,9.62748c0,5.29511 4.33237,9.62748 9.62748,9.62748c5.29511,0 9.62748,-4.33237 9.62748,-9.62748c0,-5.29511 -4.33237,-9.62748 -9.62748,-9.62748zM388.56051,276.83163v-8.75225h8.75225v8.75225zM394.68708,270.70505h-3.5009v3.5009h3.5009z" data-paper-data="{&quot;glyphName&quot;:&quot;O&quot;,&quot;glyphIndex&quot;:6,&quot;firstGlyphOfWord&quot;:true,&quot;word&quot;:2,&quot;line&quot;:1}" id="element-id-27712"></path><path d="M423.05898,264.57847v-8.75225h8.75225v0.87523h7.87703v-0.87523h8.75225v8.75225h-8.75225v-0.87523h-7.87703v0.87523h-0.87523v4.37613h6.12658v-0.87523h8.75225v8.75225h-8.75225v-0.87523h-6.12658v4.37613h0.87523v8.75225h-8.75225v-8.75225h0.87523v-15.75406zM429.18555,258.4519h-3.5009v3.5009h3.5009zM445.81484,258.4519h-3.5009v3.5009h3.5009zM439.68826,259.32712h-7.87703v1.75045h7.87703zM428.31033,264.57847h-1.75045v15.75406h1.75045zM443.18916,270.70505h-3.5009v3.5009h3.5009zM437.06258,271.58028h-6.12658v1.75045h6.12658zM429.18555,282.95821h-3.5009v3.5009h3.5009z" data-paper-data="{&quot;glyphName&quot;:&quot;F&quot;,&quot;glyphIndex&quot;:7,&quot;lastGlyphOfWord&quot;:true,&quot;word&quot;:2,&quot;line&quot;:1,&quot;lastGlyphOfFirstLine&quot;:true}" id="element-id-3675"></path><path d="M126.98345,299.687c2.87692,0 5.68694,0.46834 8.22934,1.3381l0.60215,-0.86977l11.37388,7.02504l-7.09195,11.37388l-11.37388,-7.02504l0.60215,-0.93667c-0.73596,-0.13381 -1.53882,-0.20072 -2.34168,-0.20072c-8.09553,0 -14.71914,6.55671 -14.71914,14.71914c0,8.09553 6.62361,14.71914 14.71914,14.71914c0.80286,0 1.60572,-0.06691 2.34168,-0.20072l-0.60215,-1.00358l11.37388,-7.02504l7.09195,11.37388l-11.37388,7.02504l-0.53524,-0.86977c-2.6093,0.93667 -5.41932,1.40501 -8.29624,1.40501c-14.05009,0 -25.42397,-11.37388 -25.42397,-25.42397c0,-14.05009 11.37388,-25.42397 25.42397,-25.42397zM126.98345,303.70131c-11.84222,0 -21.40966,9.56744 -21.40966,21.40966c0,11.84222 9.56744,21.40966 21.40966,21.40966c2.14097,0 4.14812,-0.33453 6.08837,-0.86977l-1.47191,-2.40859c-1.47191,0.40143 -3.01073,0.60215 -4.61646,0.60215c-10.3703,0 -18.73345,-8.36315 -18.73345,-18.73345c0,-10.3703 8.36315,-18.73345 18.73345,-18.73345c1.60572,0 3.14454,0.20072 4.61646,0.53524l1.47191,-2.34168c-1.94025,-0.53524 -3.94741,-0.86977 -6.08837,-0.86977zM141.63568,308.51848l-4.54955,-2.87692l-2.81002,4.54955l4.54955,2.87692zM141.63568,341.63654l-2.81002,-4.54955l-4.54955,2.87692l2.81002,4.54955z" data-paper-data="{&quot;glyphName&quot;:&quot;C&quot;,&quot;glyphIndex&quot;:8,&quot;firstGlyphOfWord&quot;:true,&quot;word&quot;:2,&quot;line&quot;:2,&quot;firstGlyphOfSecondLine&quot;:true}" id="element-id-64312"></path><path d="M190.49876,299.687c14.05009,0 25.42397,11.37388 25.42397,25.42397c0,14.05009 -11.37388,25.42397 -25.42397,25.42397c-14.05009,0 -25.42397,-11.37388 -25.42397,-25.42397c0,-14.05009 11.37388,-25.42397 25.42397,-25.42397zM190.49876,303.70131c-11.84222,0 -21.40966,9.56744 -21.40966,21.40966c0,11.84222 9.56744,21.40966 21.40966,21.40966c11.84222,0 21.40966,-9.56744 21.40966,-21.40966c0,-11.84222 -9.56744,-21.40966 -21.40966,-21.40966zM190.49876,306.37751c10.3703,0 18.73345,8.36315 18.73345,18.73345c0,10.3703 -8.36315,18.73345 -18.73345,18.73345c-10.3703,0 -18.73345,-8.36315 -18.73345,-18.73345c0,-10.3703 8.36315,-18.73345 18.73345,-18.73345zM190.49876,310.39182c-8.09553,0 -14.71914,6.62361 -14.71914,14.71914c0,8.09553 6.62361,14.71914 14.71914,14.71914c8.09553,0 14.71914,-6.62361 14.71914,-14.71914c0,-8.09553 -6.62361,-14.71914 -14.71914,-14.71914zM183.80825,331.80148v-13.38103h13.38103v13.38103zM193.17497,322.43476h-5.35241v5.35241h5.35241z" data-paper-data="{&quot;glyphName&quot;:&quot;O&quot;,&quot;glyphIndex&quot;:9,&quot;word&quot;:2,&quot;line&quot;:2}" id="element-id-49822"></path><path d="M236.55183,312.93422v-13.38103h13.38103v1.3381h8.02862c13.31413,0 24.08586,10.77173 24.08586,24.08586c0,13.31413 -10.77173,24.08586 -24.08586,24.08586h-8.02862v1.3381h-13.38103v-13.38103h1.3381v-24.08586zM245.91855,303.5675h-5.35241v5.35241h5.35241zM257.96148,304.9056h-8.02862v2.67621h8.02862c9.63435,0 17.39535,7.761 17.39535,17.39535c0,9.63435 -7.761,17.39535 -17.39535,17.39535h-8.02862v2.67621h8.02862c11.10626,0 20.07155,-8.96529 20.07155,-20.07155c0,-11.10626 -8.96529,-20.07155 -20.07155,-20.07155zM257.96148,311.59612h-8.02862v1.3381h-1.3381v24.08586h1.3381v1.3381h8.02862c7.35957,0 13.38103,-6.02147 13.38103,-13.38103c0,-7.35957 -6.02147,-13.38103 -13.38103,-13.38103zM244.58045,312.93422h-2.67621v24.08586h2.67621zM245.91855,341.03439h-5.35241v5.35241h5.35241z" data-paper-data="{&quot;glyphName&quot;:&quot;D&quot;,&quot;glyphIndex&quot;:10,&quot;word&quot;:2,&quot;line&quot;:2}" id="element-id-69861"></path><path d="M302.67644,313.06803v-13.38103h13.38103v13.38103h-1.3381v24.08586h1.3381v13.38103h-13.38103v-13.38103h1.3381v-24.08586zM312.04317,303.70131h-5.35241v5.35241h5.35241zM310.70506,313.06803h-2.67621v24.08586h2.67621zM312.04317,341.1682h-5.35241v5.35241h5.35241z" data-paper-data="{&quot;glyphName&quot;:&quot;I&quot;,&quot;glyphIndex&quot;:11,&quot;word&quot;:2,&quot;line&quot;:2}" id="element-id-81599"></path><path d="M336.68657,313.06803v-13.38103h13.38103v1.3381h16.05724c8.09553,0 14.71914,6.62361 14.71914,14.71914v21.40966h1.3381v13.38103h-13.38103v-13.38103h1.3381v-21.40966c0,-2.20787 -1.80644,-4.01431 -4.01431,-4.01431h-16.05724v1.3381h-1.3381v24.08586h1.3381v13.38103h-13.38103v-13.38103h1.3381v-24.08586zM346.0533,303.70131h-5.35241v5.35241h5.35241zM366.12485,305.03941h-16.05724v2.67621h16.05724c4.41574,0 8.02862,3.61288 8.02862,8.02862v21.40966h2.67621v-21.40966c0,-5.88766 -4.81717,-10.70483 -10.70483,-10.70483zM344.71519,313.06803h-2.67621v24.08586h2.67621zM346.0533,341.1682h-5.35241v5.35241h5.35241zM378.16778,341.1682h-5.35241v5.35241h5.35241z" data-paper-data="{&quot;glyphName&quot;:&quot;N&quot;,&quot;glyphIndex&quot;:12,&quot;word&quot;:2,&quot;line&quot;:2}" id="element-id-83374"></path><path d="M428.23515,299.687c2.87692,0 5.68694,0.46834 8.22934,1.3381l0.60215,-0.86977l11.37388,7.02504l-7.09195,11.37388l-11.37388,-7.02504l0.60215,-0.93667c-0.73596,-0.13381 -1.53882,-0.20072 -2.34168,-0.20072c-8.09553,0 -14.71914,6.55671 -14.71914,14.71914c0,7.6941 5.88766,13.98318 13.38103,14.65223v0.06691h9.36672v-5.35241h-1.3381v-13.38103h13.38103v13.38103h-1.3381v16.05724h-4.01431h-16.05724v-0.06691c-13.44794,-0.66905 -24.08586,-11.77531 -24.08586,-25.35706c0,-14.05009 11.37388,-25.42397 25.42397,-25.42397zM428.23515,303.70131c-11.84222,0 -21.40966,9.56744 -21.40966,21.40966c0,11.37388 8.89839,20.6737 20.07155,21.34275v0.06691h16.05724v-12.04293h-2.67621v9.36672h-4.01431h-9.36672v-0.06691c-9.70125,-0.66905 -17.39535,-8.76458 -17.39535,-18.66654c0,-10.3703 8.36315,-18.73345 18.73345,-18.73345c1.60572,0 3.14454,0.20072 4.61646,0.53524l1.47191,-2.34168c-1.94025,-0.53524 -4.01431,-0.86977 -6.08837,-0.86977zM442.88739,308.51848l-4.54955,-2.87692l-2.81002,4.54955l4.54955,2.87692zM444.29239,325.11096h-5.35241v5.35241h5.35241z" data-paper-data="{&quot;glyphName&quot;:&quot;G&quot;,&quot;glyphIndex&quot;:13,&quot;lastGlyphOfWord&quot;:true,&quot;word&quot;:2,&quot;line&quot;:2,&quot;lastGlyphOfSecondLine&quot;:true}" id="element-id-17082"></path></g><g data-paper-data="{&quot;fillRule&quot;:&quot;evenodd&quot;,&quot;fillRuleOriginal&quot;:&quot;evenodd&quot;,&quot;isIcon&quot;:true,&quot;iconStyle&quot;:&quot;standalone&quot;,&quot;selectedEffects&quot;:{&quot;container&quot;:&quot;&quot;,&quot;transformation&quot;:&quot;rotate90;translate51&quot;,&quot;pattern&quot;:&quot;&quot;},&quot;bounds&quot;:{&quot;x&quot;:201.56864984198268,&quot;y&quot;:119.46507131530801,&quot;width&quot;:150.7846283488073,&quot;height&quot;:118.5068339497743},&quot;widthRatioIconToContainer&quot;:0.3815196107667981,&quot;heightRatioIconToContainer&quot;:0.4854343905739188,&quot;relativeBoundsIconToContainer&quot;:{&quot;top&quot;:-9.043473975454057e-17,&quot;left&quot;:3.014491325151353e-17},&quot;iconType&quot;:&quot;icon&quot;,&quot;rawIconId&quot;:&quot;356e6607-99f2-4309-8f3a-7d45b9aaffe3&quot;,&quot;isSvgStockIcon&quot;:true,&quot;combineTerms&quot;:&quot;window&quot;,&quot;combineTermsExtended&quot;:{&quot;icon&quot;:[&quot;window&quot;]},&quot;isDetailed&quot;:true,&quot;suitableAsStandaloneIcon&quot;:true}" fill-rule="evenodd" id="element-id-56281">

<path  fill="#fff" d="M352.35328,119.46507h-150.78463v118.50683h150.78463zM350.52758,121.29073v56.51492h-72.6537v-56.51492zM350.52758,179.63133v56.51475h-72.6537v-56.51475zM321.53608,126.07513l24.20691,24.2068v0.73365l-26.40753,-24.94045zM310.533,126.07513l35.21001,35.21005v0.73348l-37.41062,-35.94353zM345.743,141.47945l-15.40444,-15.40432h-2.20062l17.60506,16.13781zM336.94058,126.07513l8.80242,8.80247v0.73348l-11.00321,-9.53595zM310.533,184.41555l35.21001,35.21005v0.73348l-37.41062,-35.94353zM321.53608,184.41555l24.20691,24.20696v0.73348l-26.40753,-24.94045zM345.743,199.82005l-15.40444,-15.40449h-2.20062l17.60506,16.13797zM336.94058,184.41555l8.80242,8.80264v0.73348l-11.00321,-9.53613zM276.04805,121.29073v56.51492h-72.65373v-56.51492zM276.04805,179.63133v56.51475h-72.65373v-56.51475zM271.26348,161.2852v0.73348l-37.4105,-35.94353h2.20062zM271.26348,219.6256v0.73348l-37.4105,-35.94353h2.20062zM271.26348,141.47945l-15.40432,-15.40432h-2.20062l17.60494,16.13781zM262.46101,126.07513l8.80247,8.80247v0.73348l-11.00309,-9.53595zM271.26348,199.82005l-15.40432,-15.40449h-2.20062l17.60494,16.13797zM262.46101,184.41556l8.80247,8.80264v0.73348l-11.00309,-9.53613zM247.05669,126.07513l24.2068,24.2068v0.73365l-26.40742,-24.94045zM247.05669,184.41556l24.2068,24.20696v0.73348l-26.40742,-24.94045z" data-paper-data="{&quot;isPathIcon&quot;:true}" id="element-id-34880">
</path>
</g>
</g>
</g>

</svg>